<svg width="1200" height="800" viewBox="0 0 1200 800" fill="none" xmlns="http://www.w3.org/2000/svg" role="img" aria-labelledby="title desc">
  <title id="title">Gulhan Kahvalti logo</title>
  <desc id="desc">Black and white chef woman line-art logo for Gulhan Kahvalti.</desc>
  <rect width="1200" height="800" fill="white"/>
  <g stroke="#050505" stroke-linecap="round" stroke-linejoin="round">
    <path d="M424 520c-50-5-88-42-91-90-2-33 11-61 35-82 2-60 35-107 91-133 26-76 98-122 181-118 45 2 80 16 105 39 43 3 78 24 99 58 33 55 23 128-19 174 17 20 26 45 24 72-4 48-43 84-94 80" stroke-width="18"/>
    <path d="M456 211c8-41 44-76 92-95 50-20 105-18 151 5 16 8 34 19 52 20 55 4 94 42 109 91 14 49 1 106-33 142" stroke-width="10"/>
    <path d="M518 142c-18 30-28 62-30 96" stroke-width="10"/>
    <path d="M612 112c-12 39-13 76-2 111" stroke-width="10"/>
    <path d="M719 136c22 37 24 75 6 113" stroke-width="10"/>
    <path d="M469 253c54-43 131-62 209-48 55 10 100 36 128 73" stroke-width="14"/>
    <path d="M465 284c78-38 170-42 258-12" stroke-width="10"/>
    <path d="M480 310c82-25 165-21 238 12" stroke-width="8"/>
    <path d="M512 263c-35 9-61 30-77 59" stroke-width="8"/>
    <path d="M760 287c25 14 44 36 57 66" stroke-width="8"/>
    <path d="M447 393c-28 4-47 25-44 50 3 23 27 39 56 36" stroke-width="12"/>
    <path d="M800 394c29 4 47 25 44 50-3 23-27 39-55 36" stroke-width="12"/>
    <path d="M464 357c-13 88 36 171 141 183 112 13 184-59 183-175" stroke-width="16"/>
    <path d="M516 367c54-28 126-30 183-4" stroke-width="10"/>
    <path d="M506 407c17-17 46-23 70-12" stroke-width="8"/>
    <path d="M667 403c24-14 55-10 75 8" stroke-width="8"/>
    <path d="M531 430c13 9 31 8 44-1" stroke-width="7"/>
    <path d="M674 429c14 10 33 10 47 0" stroke-width="7"/>
    <path d="M624 431c-3 23-12 42-27 57 19 9 39 10 60 2" stroke-width="7"/>
    <path d="M568 507c32 31 85 36 126 12" stroke-width="11"/>
    <path d="M556 337c-48-6-84 11-111 44" stroke-width="8"/>
    <path d="M679 337c50-7 90 10 118 45" stroke-width="8"/>
    <path d="M512 541c-39 15-74 39-101 72-29 35-48 80-56 134" stroke-width="16"/>
    <path d="M718 544c45 14 82 40 110 76 26 34 42 77 49 127" stroke-width="16"/>
    <path d="M515 560c16 74 56 116 103 116 47 0 87-43 104-116" stroke-width="12"/>
    <path d="M473 628c87 45 188 48 295 6" stroke-width="13"/>
    <path d="M437 653c118 68 245 68 378 0" stroke-width="13"/>
    <path d="M396 701c145 82 297 83 457 1" stroke-width="15"/>
    <path d="M484 582c-33-31-77-42-122-24-36 14-59 43-62 77 38-25 77-25 116 1" stroke-width="15"/>
    <path d="M748 583c34-31 79-43 124-25 36 15 58 44 61 78-38-26-77-26-116 1" stroke-width="15"/>
    <path d="M397 582c22 39 57 62 104 69" stroke-width="10"/>
    <path d="M835 582c-23 39-58 62-104 69" stroke-width="10"/>
    <path d="M506 616c25 21 58 34 101 38" stroke-width="8"/>
    <path d="M730 616c-25 21-59 34-102 38" stroke-width="8"/>
    <path d="M625 540c-13 26-33 50-61 72" stroke-width="8"/>
    <path d="M635 540c14 27 35 51 64 72" stroke-width="8"/>
    <path d="M506 594c75 33 153 33 236 0" stroke-width="8"/>
    <path d="M426 225c-43 24-76 59-97 104-33 71-30 148 8 219" stroke-width="12"/>
    <path d="M819 225c43 24 76 59 97 104 33 71 30 148-8 219" stroke-width="12"/>
    <path d="M352 546c-28 38-44 83-48 135" stroke-width="9"/>
    <path d="M892 546c28 38 44 83 48 135" stroke-width="9"/>
  </g>
  <g fill="#050505">
    <circle cx="548" cy="425" r="8"/>
    <circle cx="703" cy="425" r="8"/>
    <path d="M563 522c30 22 82 24 123 4-11 28-41 46-73 42-25-3-45-20-50-46Z"/>
    <path d="M503 383c20-12 47-15 75-6-26 4-49 11-69 24-9 5-15-13-6-18Z"/>
    <path d="M668 377c28-10 56-7 77 7 8 5 2 23-7 17-20-13-43-20-70-24Z"/>
    <path d="M455 280c67-55 182-75 290-32-114-10-201 1-290 32Z"/>
  </g>
</svg>
